<svg width="16" height="17" viewBox="0 0 16 17" fill="none" xmlns="http://www.w3.org/2000/svg">
<path d="M11.8594 5.34484C12.3643 5.34484 12.7736 4.91853 12.7736 4.39264C12.7736 3.86675 12.3643 3.44043 11.8594 3.44043C11.3546 3.44043 10.9453 3.86675 10.9453 4.39264C10.9453 4.91853 11.3546 5.34484 11.8594 5.34484Z" fill="white"/>
<path fill-rule="evenodd" clip-rule="evenodd" d="M4.10352 8.46948C4.10352 10.6576 5.8118 12.437 7.9124 12.437C10.013 12.437 11.7213 10.6576 11.7213 8.46948C11.7213 6.28139 10.013 4.50195 7.9124 4.50195C5.8118 4.50195 4.10352 6.28139 4.10352 8.46948ZM6.0078 8.46863C6.0078 7.37458 6.86194 6.48486 7.91224 6.48486C8.96254 6.48486 9.81668 7.37458 9.81668 8.46863C9.81668 9.56267 8.96254 10.4524 7.91224 10.4524C6.86194 10.4524 6.0078 9.56267 6.0078 8.46863Z" fill="white"/>
<path fill-rule="evenodd" clip-rule="evenodd" d="M4.1038 16.4033H11.7216C13.6793 16.4033 15.5304 14.4751 15.5304 12.4358V4.50073C15.5304 2.46142 13.6793 0.533203 11.7216 0.533203H4.1038C2.14604 0.533203 0.294922 2.46142 0.294922 4.50073V12.4358C0.294922 14.4751 2.14604 16.4033 4.1038 16.4033ZM2.19928 4.49988C2.19928 3.57247 3.21339 2.51611 4.10372 2.51611H11.7215C12.6118 2.51611 13.6259 3.57247 13.6259 4.49988V12.4349C13.6259 13.3623 12.6118 14.4187 11.7215 14.4187H4.10372C3.19625 14.4187 2.19928 13.3802 2.19928 12.4349V4.49988Z" fill="white"/>
</svg>
