<svg width="17" height="18" viewBox="0 0 17 18" fill="none" xmlns="http://www.w3.org/2000/svg">
<path d="M2.94937 4.65333C4.04161 4.65333 4.92705 3.73101 4.92705 2.59327C4.92705 1.45552 4.04161 0.533203 2.94937 0.533203C1.85712 0.533203 0.97168 1.45552 0.97168 2.59327C0.97168 3.73101 1.85712 4.65333 2.94937 4.65333Z" fill="white"/>
<path d="M4.59744 6.02734H1.30129C1.11935 6.02734 0.97168 6.18116 0.97168 6.37069V16.671C0.97168 16.8605 1.11935 17.0143 1.30129 17.0143H4.59744C4.77939 17.0143 4.92705 16.8605 4.92705 16.671V6.37069C4.92705 6.18116 4.77939 6.02734 4.59744 6.02734Z" fill="white"/>
<path d="M14.4195 5.55247C13.0108 5.04981 11.2486 5.49135 10.1919 6.2831C10.1556 6.13547 10.0264 6.0256 9.87283 6.0256H6.57668C6.39474 6.0256 6.24707 6.17941 6.24707 6.36894V16.6693C6.24707 16.8588 6.39474 17.0126 6.57668 17.0126H9.87283C10.0548 17.0126 10.2024 16.8588 10.2024 16.6693V9.26676C10.7351 8.78883 11.4214 8.63638 11.983 8.88496C12.5275 9.12462 12.8394 9.70967 12.8394 10.4891V16.6693C12.8394 16.8588 12.987 17.0126 13.169 17.0126H16.4651C16.6471 17.0126 16.7947 16.8588 16.7947 16.6693V9.79757C16.7572 6.97597 15.4829 5.93152 14.4195 5.55247Z" fill="white"/>
</svg>
