<svg width="161" height="65" viewBox="0 0 161 65" fill="none" xmlns="http://www.w3.org/2000/svg">
<g clip-path="url(#clip0_261_1333)">
<path d="M1.11035 64.8653V53.3047H6.28782C7.52403 53.3047 8.61403 53.5441 9.56112 54.023C10.5049 54.5019 11.2426 55.1696 11.7743 56.0296C12.306 56.8896 12.5719 57.908 12.5719 59.085C12.5719 60.262 12.306 61.2703 11.7743 62.1337C11.2426 62.997 10.5049 63.6681 9.56112 64.147C8.61735 64.6259 7.52736 64.8653 6.28782 64.8653H1.11035ZM3.74893 62.6699H6.15822C6.91922 62.6699 7.5772 62.5249 8.13549 62.2315C8.69378 61.9381 9.12911 61.5233 9.43817 60.9837C9.74722 60.4441 9.90341 59.8101 9.90341 59.085C9.90341 58.3599 9.74722 57.7124 9.43817 57.1762C9.12911 56.6434 8.69378 56.2286 8.13549 55.9385C7.5772 55.6485 6.91922 55.5001 6.15822 55.5001H3.74893V62.6699Z" fill="white"/>
<path d="M18.7226 64.9999C17.7224 64.9999 16.8484 64.8009 16.094 64.4064C15.3397 64.0084 14.7548 63.4688 14.3427 62.7775C13.9306 62.0895 13.7246 61.3037 13.7246 60.4235C13.7246 59.5433 13.9273 58.7407 14.3361 58.0527C14.7415 57.3648 15.2998 56.8252 16.0043 56.434C16.7088 56.0428 17.5064 55.8472 18.397 55.8472C19.2876 55.8472 20.0253 56.0327 20.7165 56.4002C21.4044 56.7678 21.9494 57.2973 22.3515 57.9853C22.7536 58.6733 22.953 59.4961 22.953 60.4539C22.953 60.5517 22.9497 60.6664 22.9364 60.7911C22.9264 60.9193 22.9131 61.0373 22.9032 61.1452H15.7916V59.6411H21.5706L20.5936 60.0863C20.5936 59.6243 20.5005 59.223 20.3177 58.8823C20.1316 58.5417 19.8791 58.2753 19.5534 58.0797C19.2277 57.8875 18.8489 57.7897 18.4136 57.7897C17.9782 57.7897 17.5961 57.8875 17.2638 58.0797C16.9314 58.2719 16.6756 58.5417 16.4895 58.8891C16.3067 59.2364 16.2136 59.6479 16.2136 60.12V60.5146C16.2136 61.0002 16.32 61.4251 16.5293 61.7961C16.742 62.1637 17.0411 62.447 17.4233 62.6392C17.8088 62.8314 18.2607 62.9292 18.7824 62.9292C19.2477 62.9292 19.6598 62.8584 20.012 62.7134C20.3643 62.5718 20.6866 62.3559 20.9824 62.0693L22.3316 63.5565C21.9295 64.0185 21.4243 64.3726 20.8195 64.6222C20.2114 64.8684 19.5102 64.9932 18.7193 64.9932L18.7226 64.9999Z" fill="white"/>
<path d="M27.5925 65C26.8448 65 26.1237 64.9089 25.4358 64.7268C24.7479 64.5447 24.2029 64.3154 23.8008 64.0422L24.6482 62.1942C25.0503 62.4471 25.5255 62.6528 26.0738 62.8147C26.6221 62.9732 27.1605 63.0541 27.6922 63.0541C28.2771 63.0541 28.6925 62.9833 28.9384 62.8383C29.181 62.6933 29.3039 62.4977 29.3039 62.2447C29.3039 62.0357 29.2075 61.8805 29.0181 61.7726C28.8287 61.6681 28.5761 61.5871 28.2604 61.5332C27.9447 61.4792 27.5991 61.4219 27.2269 61.3679C26.8548 61.314 26.4759 61.2398 26.0971 61.1453C25.7149 61.0509 25.3693 60.9126 25.0536 60.7238C24.7412 60.5349 24.4853 60.282 24.2959 59.965C24.1065 59.6446 24.0101 59.2332 24.0101 58.7273C24.0101 58.1675 24.1696 57.6717 24.492 57.2401C24.811 56.8118 25.2763 56.4712 25.8844 56.225C26.4925 55.9788 27.2203 55.854 28.0644 55.854C28.6625 55.854 29.2674 55.9215 29.8888 56.053C30.5069 56.1845 31.022 56.3767 31.4341 56.6297L30.5867 58.4609C30.1646 58.208 29.7393 58.0326 29.3072 57.9415C28.8786 57.8471 28.4632 57.7999 28.0611 57.7999C27.4961 57.7999 27.0841 57.8775 26.8248 58.0326C26.5656 58.1877 26.4327 58.3867 26.4327 58.6261C26.4327 58.8453 26.5291 59.0106 26.7185 59.1219C26.9079 59.2332 27.1605 59.3209 27.4762 59.3849C27.7919 59.4524 28.1375 59.5097 28.5097 59.5569C28.8852 59.6075 29.2607 59.6817 29.6429 59.7795C30.0217 59.8773 30.3673 60.0189 30.6764 60.2011C30.9854 60.3832 31.238 60.6294 31.4341 60.943C31.6301 61.2566 31.7265 61.6681 31.7265 62.1739C31.7265 62.7236 31.5637 63.2126 31.238 63.6375C30.9123 64.0625 30.4438 64.3963 29.829 64.6358C29.2142 64.8786 28.4698 65 27.5892 65H27.5925Z" fill="white"/>
<path d="M33.2881 64.8652V52.6099H35.827V64.8652H33.2881ZM35.3883 63.0475L35.4548 59.9078L39.5389 55.9755H42.5663L38.6417 60.0224L37.3224 61.1117L35.385 63.0441L35.3883 63.0475ZM39.8148 64.8652L36.8505 61.132L38.4456 59.1321L42.8887 64.8652H39.8114H39.8148Z" fill="white"/>
<path d="M61.7848 46.6711C58.2689 46.6711 55.1518 45.9258 52.4335 44.4318C49.7152 42.9378 47.5684 40.8942 45.9965 38.3008C44.4214 35.7074 43.6338 32.7531 43.6338 29.4347C43.6338 26.1162 44.4214 23.0979 45.9965 20.5045C47.5684 17.9111 49.7152 15.8776 52.4335 14.4072C55.1518 12.9334 58.2689 12.1982 61.7848 12.1982C65.3007 12.1982 68.3647 12.9368 71.1063 14.4072C73.8446 15.8809 75.9913 17.9044 77.5465 20.4742C79.1018 23.0473 79.8761 26.0353 79.8761 29.4347C79.8761 32.8341 79.0985 35.7107 77.5465 38.3008C75.9913 40.8942 73.8446 42.9378 71.1063 44.4318C68.368 45.9258 65.2609 46.6711 61.7848 46.6711ZM61.7848 38.7055C63.3799 38.7055 64.8089 38.3311 66.0783 37.5858C67.3445 36.8371 68.3481 35.7714 69.0825 34.382C69.8202 32.9926 70.1858 31.3435 70.1858 29.4347C70.1858 27.5259 69.8169 25.8262 69.0825 24.457C68.3447 23.0878 67.3445 22.0288 66.0783 21.2835C64.8089 20.5349 63.3799 20.1639 61.7848 20.1639C60.1897 20.1639 58.7574 20.5382 57.4913 21.2835C56.2252 22.0288 55.2116 23.0878 54.4573 24.457C53.6996 25.8262 53.3208 27.4854 53.3208 29.4347C53.3208 31.3839 53.6996 32.9926 54.4573 34.382C55.2116 35.7714 56.2252 36.8405 57.4913 37.5858C58.7574 38.3345 60.1897 38.7055 61.7848 38.7055Z" fill="url(#paint0_linear_261_1333)"/>
<path d="M100.416 46.6709C97.3089 46.6709 94.5075 45.956 92.0151 44.5227C89.5194 43.0928 87.5488 41.0896 86.0966 38.5164C84.6444 35.9466 83.9199 32.9148 83.9199 29.4311C83.9199 25.9474 84.6444 22.8549 86.0966 20.2817C87.5488 17.7086 89.5194 15.7188 92.0151 14.3058C94.5075 12.8961 97.3089 12.1913 100.416 12.1913C103.198 12.1913 105.63 12.8152 107.714 14.0596C109.797 15.304 111.412 17.1926 112.559 19.7219C113.702 22.2512 114.274 25.4887 114.274 29.4311C114.274 33.3735 113.722 36.557 112.619 39.1066C111.515 41.6561 109.93 43.5548 107.867 44.7992C105.8 46.0436 103.317 46.6642 100.416 46.6642V46.6709ZM102.071 38.7053C103.626 38.7053 105.035 38.3309 106.301 37.5856C107.567 36.8369 108.578 35.7712 109.335 34.3818C110.093 32.9924 110.472 31.3433 110.472 29.4345C110.472 27.5257 110.093 25.826 109.335 24.4568C108.578 23.0876 107.567 22.0286 106.301 21.2833C105.035 20.5347 103.623 20.1637 102.071 20.1637C100.519 20.1637 99.0436 20.538 97.7775 21.2833C96.5113 22.0286 95.4978 23.0876 94.7401 24.4568C93.9824 25.826 93.6069 27.4852 93.6069 29.4345C93.6069 31.3837 93.9857 32.9924 94.7401 34.3818C95.4978 35.7712 96.508 36.8403 97.7775 37.5856C99.0436 38.3343 100.476 38.7053 102.071 38.7053ZM110.718 46.1718V39.3258L110.901 29.367L110.286 19.4723V0H119.853V46.1752H110.718V46.1718Z" fill="url(#paint1_linear_261_1333)"/>
<path d="M145.06 46.6711C141.298 46.6711 137.998 45.9258 135.157 44.4318C132.316 42.9378 130.119 40.8942 128.564 38.3008C127.009 35.7074 126.234 32.7531 126.234 29.4347C126.234 26.1162 127.002 23.0979 128.534 20.5045C130.066 17.9111 132.16 15.8776 134.818 14.4072C137.473 12.9334 140.481 12.1982 143.834 12.1982C147.187 12.1982 149.975 12.893 152.574 14.2824C155.169 15.6718 157.223 17.6649 158.735 20.255C160.247 22.8483 161.005 25.9476 161.005 29.5595C161.005 29.9338 160.985 30.3587 160.945 30.8342C160.905 31.3131 160.862 31.7583 160.822 32.1731H134.024V26.5108H155.794L152.115 28.1936C152.115 26.4501 151.769 24.9359 151.072 23.651C150.377 22.3661 149.417 21.3577 148.19 20.6327C146.964 19.9076 145.532 19.5434 143.897 19.5434C142.262 19.5434 140.82 19.9076 139.574 20.6327C138.327 21.3577 137.354 22.3728 136.662 23.6813C135.968 24.9898 135.619 26.5344 135.619 28.3184V29.8124C135.619 31.6402 136.018 33.2455 136.815 34.6349C137.613 36.0244 138.736 37.0833 140.188 37.8084C141.641 38.5335 143.345 38.8977 145.309 38.8977C147.067 38.8977 148.609 38.6279 149.938 38.0883C151.264 37.5487 152.484 36.7427 153.587 35.6635L158.675 41.2651C157.163 43.0087 155.262 44.3475 152.972 45.2783C150.683 46.2125 148.044 46.6779 145.063 46.6779L145.06 46.6711Z" fill="url(#paint2_linear_261_1333)"/>
<path d="M13.6354 7.05192C19.9627 3.10282 28.4832 3.65253 34.3419 8.29972C37.8146 10.9808 40.3435 14.9097 41.3571 19.2533L41.5233 19.223C39.6789 6.83609 27.1606 -0.832791 15.4133 2.75209C5.52689 5.68609 -0.454781 15.2739 0.0270759 25.1112C0.160002 27.8463 0.794724 30.5981 1.98441 33.2354C6.60359 43.6764 18.2213 49.0857 29.1312 46.1079C33.6374 44.8938 37.7382 42.2937 40.842 38.7695L34.209 32.0382C33.7338 32.7497 33.2087 33.4377 32.6272 34.0819C30.0949 36.8405 26.5458 38.6178 22.8339 38.9415C14.5027 39.8318 6.70661 33.5254 5.38732 25.1112C4.13449 18.1202 7.5673 10.7177 13.6354 7.05192Z" fill="url(#paint3_linear_261_1333)"/>
</g>
<defs>
<linearGradient id="paint0_linear_261_1333" x1="0.250062" y1="29.4347" x2="160.542" y2="29.4347" gradientUnits="userSpaceOnUse">
<stop stop-color="#00F39A"/>
<stop offset="1" stop-color="#009FDE"/>
</linearGradient>
<linearGradient id="paint1_linear_261_1333" x1="0.249635" y1="23.3371" x2="160.542" y2="23.3371" gradientUnits="userSpaceOnUse">
<stop stop-color="#00F39A"/>
<stop offset="1" stop-color="#009FDE"/>
</linearGradient>
<linearGradient id="paint2_linear_261_1333" x1="0.250404" y1="0.000201314" x2="160.543" y2="0.000201314" gradientUnits="userSpaceOnUse">
<stop stop-color="#00F39A"/>
<stop offset="1" stop-color="#009FDE"/>
</linearGradient>
<linearGradient id="paint3_linear_261_1333" x1="0.226465" y1="24.3929" x2="163.297" y2="24.3929" gradientUnits="userSpaceOnUse">
<stop stop-color="#00F39A"/>
<stop offset="1" stop-color="#009FDE"/>
</linearGradient>
<clipPath id="clip0_261_1333">
<rect width="161" height="65" fill="white"/>
</clipPath>
</defs>
</svg>
