<svg width="133" height="53" viewBox="0 0 133 53" fill="none" xmlns="http://www.w3.org/2000/svg">
<g clip-path="url(#clip0_261_1345)">
<path d="M0.916992 52.8898V43.4634H5.19403C6.21525 43.4634 7.11568 43.6586 7.89806 44.0491C8.6777 44.4396 9.28714 44.984 9.72638 45.6852C10.1656 46.3864 10.3852 47.2169 10.3852 48.1766C10.3852 49.1363 10.1656 49.9585 9.72638 50.6624C9.28714 51.3664 8.6777 51.9136 7.89806 52.304C7.11842 52.6945 6.218 52.8898 5.19403 52.8898H0.916992ZM3.09669 51.0996H5.08697C5.71562 51.0996 6.25917 50.9814 6.72037 50.7421C7.18156 50.5029 7.54119 50.1647 7.79649 49.7247C8.0518 49.2847 8.18082 48.7678 8.18082 48.1766C8.18082 47.5854 8.0518 47.0574 7.79649 46.6202C7.54119 46.1857 7.18156 45.8475 6.72037 45.611C6.25917 45.3745 5.71562 45.2535 5.08697 45.2535H3.09669V51.0996Z" fill="black"/>
<path d="M15.4667 52.9996C14.6404 52.9996 13.9184 52.8374 13.2952 52.5157C12.6721 52.1912 12.1889 51.7512 11.8485 51.1875C11.5081 50.6265 11.3379 49.9858 11.3379 49.2681C11.3379 48.5504 11.5053 47.896 11.843 47.335C12.1779 46.774 12.6391 46.3341 13.2211 46.0151C13.8031 45.6961 14.4619 45.5366 15.1977 45.5366C15.9334 45.5366 16.5428 45.6879 17.1138 45.9876C17.6821 46.2873 18.1323 46.719 18.4645 47.28C18.7966 47.841 18.9613 48.5119 18.9613 49.2929C18.9613 49.3726 18.9586 49.4661 18.9476 49.5679C18.9394 49.6723 18.9284 49.7686 18.9202 49.8566H13.0454V48.6302H17.8193L17.0122 48.9931C17.0122 48.6164 16.9354 48.2892 16.7844 48.0115C16.6307 47.7337 16.422 47.5165 16.153 47.357C15.884 47.2003 15.571 47.1205 15.2114 47.1205C14.8518 47.1205 14.5361 47.2003 14.2615 47.357C13.987 47.5137 13.7756 47.7337 13.6219 48.017C13.4709 48.3002 13.3941 48.6357 13.3941 49.0206V49.3424C13.3941 49.7383 13.4819 50.0848 13.6548 50.3873C13.8305 50.687 14.0776 50.918 14.3933 51.0748C14.7118 51.2315 15.0851 51.3112 15.5161 51.3112C15.9004 51.3112 16.2408 51.2535 16.5318 51.1353C16.8228 51.0198 17.0891 50.8438 17.3334 50.61L18.448 51.8227C18.1158 52.1994 17.6985 52.4882 17.1989 52.6916C16.6965 52.8924 16.1173 52.9941 15.4639 52.9941L15.4667 52.9996Z" fill="black"/>
<path d="M22.7934 53C22.1757 53 21.58 52.9257 21.0118 52.7773C20.4435 52.6288 19.9933 52.4418 19.6611 52.219L20.3612 50.7121C20.6933 50.9184 21.0859 51.0861 21.5389 51.2181C21.9918 51.3473 22.4365 51.4133 22.8758 51.4133C23.3589 51.4133 23.7021 51.3556 23.9052 51.2374C24.1056 51.1191 24.2072 50.9596 24.2072 50.7534C24.2072 50.5829 24.1276 50.4564 23.9711 50.3684C23.8146 50.2832 23.606 50.2172 23.3452 50.1732C23.0844 50.1292 22.7989 50.0824 22.4914 50.0384C22.184 49.9944 21.871 49.9339 21.5581 49.8569C21.2424 49.78 20.9569 49.6672 20.6961 49.5132C20.438 49.3592 20.2266 49.153 20.0702 48.8945C19.9137 48.6333 19.8341 48.2978 19.8341 47.8853C19.8341 47.4289 19.9658 47.0246 20.2321 46.6727C20.4957 46.3234 20.88 46.0457 21.3824 45.845C21.8848 45.6442 22.486 45.5425 23.1832 45.5425C23.6774 45.5425 24.177 45.5975 24.6904 45.7047C25.201 45.812 25.6265 45.9687 25.9669 46.1749L25.2669 47.6681C24.9182 47.4619 24.5668 47.3189 24.2099 47.2446C23.8558 47.1676 23.5127 47.1291 23.1805 47.1291C22.7138 47.1291 22.3734 47.1924 22.1593 47.3189C21.9451 47.4454 21.8353 47.6076 21.8353 47.8028C21.8353 47.9816 21.915 48.1163 22.0714 48.2071C22.2279 48.2978 22.4365 48.3693 22.6973 48.4215C22.9581 48.4765 23.2436 48.5233 23.5511 48.5618C23.8613 48.603 24.1715 48.6635 24.4872 48.7433C24.8002 48.823 25.0857 48.9385 25.341 49.087C25.5963 49.2355 25.8049 49.4362 25.9669 49.692C26.1288 49.9477 26.2085 50.2832 26.2085 50.6956C26.2085 51.1439 26.0739 51.5426 25.8049 51.8891C25.5359 52.2355 25.1488 52.5078 24.6409 52.703C24.1331 52.901 23.5182 53 22.7907 53H22.7934Z" fill="black"/>
<path d="M27.499 52.8898V42.897H29.5964V52.8898H27.499ZM29.234 51.4077L29.2889 48.8476L32.6628 45.6413H35.1637L31.9216 48.9411L30.8317 49.8293L29.2313 51.4049L29.234 51.4077ZM32.8906 52.8898L30.4419 49.8458L31.7596 48.2151L35.4299 52.8898H32.8879H32.8906Z" fill="black"/>
<path d="M51.0393 38.0549C48.1348 38.0549 45.5598 37.4472 43.3142 36.2291C41.0687 35.0109 39.2953 33.3445 37.9968 31.2299C36.6955 29.1153 36.0449 26.7064 36.0449 24.0006C36.0449 21.2948 36.6955 18.8337 37.9968 16.7191C39.2953 14.6045 41.0687 12.9463 43.3142 11.7474C45.5598 10.5458 48.1348 9.94629 51.0393 9.94629C53.9437 9.94629 56.4748 10.5485 58.7396 11.7474C61.0016 12.9491 62.775 14.599 64.0598 16.6943C65.3446 18.7925 65.9842 21.2288 65.9842 24.0006C65.9842 26.7724 65.3418 29.118 64.0598 31.2299C62.775 33.3445 61.0016 35.0109 58.7396 36.2291C56.4775 37.4472 53.9108 38.0549 51.0393 38.0549ZM51.0393 31.5599C52.357 31.5599 53.5374 31.2546 54.5861 30.6469C55.632 30.0365 56.4611 29.1675 57.0678 28.0346C57.6772 26.9017 57.9792 25.557 57.9792 24.0006C57.9792 22.4442 57.6744 21.0583 57.0678 19.9419C56.4583 18.8255 55.632 17.962 54.5861 17.3543C53.5374 16.7438 52.357 16.4414 51.0393 16.4414C49.7216 16.4414 48.5384 16.7466 47.4925 17.3543C46.4465 17.962 45.6092 18.8255 44.9861 19.9419C44.3602 21.0583 44.0472 22.4112 44.0472 24.0006C44.0472 25.59 44.3602 26.9017 44.9861 28.0346C45.6092 29.1675 46.4465 30.0392 47.4925 30.6469C48.5384 31.2574 49.7216 31.5599 51.0393 31.5599Z" fill="url(#paint0_linear_261_1345)"/>
<path d="M82.9524 38.0547C80.3857 38.0547 78.0714 37.4718 76.0125 36.3031C73.9509 35.1372 72.323 33.5038 71.1233 31.4057C69.9236 29.3103 69.3252 26.8382 69.3252 23.9977C69.3252 21.1571 69.9236 18.6355 71.1233 16.5374C72.323 14.4393 73.9509 12.8169 76.0125 11.6647C78.0714 10.5153 80.3857 9.94059 82.9524 9.94059C85.2502 9.94059 87.2597 10.4493 88.9809 11.464C90.7022 12.4787 92.0363 14.0186 92.9834 16.0809C93.9278 18.1433 94.3999 20.7831 94.3999 23.9977C94.3999 27.2122 93.9443 29.808 93.0328 31.8869C92.1214 33.9658 90.812 35.5139 89.1072 36.5286C87.3997 37.5433 85.349 38.0492 82.9524 38.0492V38.0547ZM84.3195 31.5597C85.6043 31.5597 86.7683 31.2544 87.8142 30.6467C88.8601 30.0363 89.6947 29.1673 90.3206 28.0344C90.9465 26.9015 91.2594 25.5568 91.2594 24.0004C91.2594 22.444 90.9465 21.0581 90.3206 19.9417C89.6947 18.8253 88.8601 17.9618 87.8142 17.3541C86.7683 16.7436 85.6015 16.4412 84.3195 16.4412C83.0375 16.4412 81.8187 16.7464 80.7727 17.3541C79.7268 17.9618 78.8895 18.8253 78.2636 19.9417C77.6377 21.0581 77.3275 22.411 77.3275 24.0004C77.3275 25.5898 77.6404 26.9015 78.2636 28.0344C78.8895 29.1673 79.7241 30.039 80.7727 30.6467C81.8187 31.2572 83.0018 31.5597 84.3195 31.5597ZM91.4626 37.6478V32.0656L91.6136 23.9454L91.1057 15.8775V0H99.0092V37.6505H91.4626V37.6478Z" fill="url(#paint1_linear_261_1345)"/>
<path d="M119.832 38.0549C116.724 38.0549 113.998 37.4472 111.651 36.2291C109.304 35.0109 107.489 33.3445 106.205 31.2299C104.92 29.1153 104.28 26.7064 104.28 24.0006C104.28 21.2948 104.914 18.8337 106.18 16.7191C107.446 14.6045 109.175 12.9463 111.371 11.7474C113.565 10.5458 116.049 9.94629 118.819 9.94629C121.589 9.94629 123.892 10.5128 126.039 11.6457C128.183 12.7786 129.879 14.4037 131.128 16.5156C132.378 18.6302 133.003 21.1573 133.003 24.1024C133.003 24.4076 132.987 24.7541 132.954 25.1418C132.921 25.5323 132.885 25.8952 132.852 26.2335H110.715V21.6165H128.699L125.66 22.9887C125.66 21.567 125.374 20.3324 124.798 19.2847C124.224 18.237 123.431 17.4148 122.418 16.8236C121.405 16.2324 120.222 15.9354 118.871 15.9354C117.52 15.9354 116.329 16.2324 115.3 16.8236C114.27 17.4148 113.466 18.2425 112.895 19.3094C112.321 20.3764 112.033 21.6358 112.033 23.0904V24.3086C112.033 25.799 112.362 27.1079 113.021 28.2408C113.68 29.3738 114.608 30.2372 115.807 30.8284C117.007 31.4196 118.415 31.7166 120.038 31.7166C121.49 31.7166 122.764 31.4966 123.862 31.0566C124.957 30.6167 125.965 29.9595 126.876 29.0795L131.079 33.647C129.83 35.0686 128.26 36.1603 126.368 36.9193C124.477 37.681 122.297 38.0604 119.835 38.0604L119.832 38.0549Z" fill="url(#paint2_linear_261_1345)"/>
<path d="M11.264 5.75001C16.4909 2.52998 23.5296 2.9782 28.3694 6.76745C31.2382 8.95355 33.3273 12.1571 34.1646 15.6989L34.3018 15.6741C32.7782 5.57403 22.437 -0.67906 12.7327 2.244C4.56569 4.63634 -0.375689 12.4541 0.022367 20.4753C0.132175 22.7054 0.656511 24.9492 1.6393 27.0996C5.45514 35.613 15.0524 40.0238 24.0649 37.5957C27.7874 36.6057 31.175 34.4856 33.7391 31.6121L28.2596 26.1234C27.867 26.7036 27.4333 27.2646 26.9529 27.7898C24.861 30.0392 21.9292 31.4883 18.8628 31.7523C11.9805 32.4782 5.54024 27.3361 4.45039 20.4753C3.41545 14.7749 6.25125 8.73907 11.264 5.75001Z" fill="url(#paint3_linear_261_1345)"/>
</g>
<defs>
<linearGradient id="paint0_linear_261_1345" x1="0.206189" y1="24.0006" x2="132.621" y2="24.0006" gradientUnits="userSpaceOnUse">
<stop stop-color="#00F39A"/>
<stop offset="1" stop-color="#009FDE"/>
</linearGradient>
<linearGradient id="paint1_linear_261_1345" x1="0.206269" y1="19.0287" x2="132.622" y2="19.0287" gradientUnits="userSpaceOnUse">
<stop stop-color="#00F39A"/>
<stop offset="1" stop-color="#009FDE"/>
</linearGradient>
<linearGradient id="paint2_linear_261_1345" x1="0.206557" y1="0.000193708" x2="132.622" y2="0.000193708" gradientUnits="userSpaceOnUse">
<stop stop-color="#00F39A"/>
<stop offset="1" stop-color="#009FDE"/>
</linearGradient>
<linearGradient id="paint3_linear_261_1345" x1="0.18708" y1="19.8896" x2="134.897" y2="19.8896" gradientUnits="userSpaceOnUse">
<stop stop-color="#00F39A"/>
<stop offset="1" stop-color="#009FDE"/>
</linearGradient>
<clipPath id="clip0_261_1345">
<rect width="133" height="53" fill="white"/>
</clipPath>
</defs>
</svg>
