<svg width="132" height="53" viewBox="0 0 132 53" fill="none" xmlns="http://www.w3.org/2000/svg">
<g clip-path="url(#clip0_261_1357)">
<path d="M0.910156 52.8898V43.4634H5.15504C6.16858 43.4634 7.06224 43.6586 7.83874 44.0491C8.61252 44.4396 9.21737 44.984 9.6533 45.6852C10.0892 46.3864 10.3072 47.2169 10.3072 48.1766C10.3072 49.1363 10.0892 49.9585 9.6533 50.6624C9.21737 51.3664 8.61252 51.9136 7.83874 52.304C7.06496 52.6945 6.1713 52.8898 5.15504 52.8898H0.910156ZM3.07347 51.0996H5.04878C5.67271 51.0996 6.21217 50.9814 6.6699 50.7421C7.12763 50.5029 7.48455 50.1647 7.73793 49.7247C7.99132 49.2847 8.11937 48.7678 8.11937 48.1766C8.11937 47.5854 7.99132 47.0574 7.73793 46.6202C7.48455 46.1857 7.12763 45.8475 6.6699 45.611C6.21217 45.3745 5.67271 45.2535 5.04878 45.2535H3.07347V51.0996Z" fill="white"/>
<path d="M15.3507 52.9996C14.5306 52.9996 13.814 52.8374 13.1955 52.5157C12.5771 52.1912 12.0975 51.7512 11.7597 51.1875C11.4219 50.6265 11.2529 49.9858 11.2529 49.2681C11.2529 48.5504 11.4191 47.896 11.7543 47.335C12.0866 46.774 12.5444 46.3341 13.122 46.0151C13.6996 45.6961 14.3535 45.5366 15.0837 45.5366C15.8139 45.5366 16.4187 45.6879 16.9854 45.9876C17.5494 46.2873 17.9962 46.719 18.3259 47.28C18.6556 47.841 18.8191 48.5119 18.8191 49.2929C18.8191 49.3726 18.8163 49.4661 18.8054 49.5679C18.7973 49.6723 18.7864 49.7686 18.7782 49.8566H12.9476V48.6302H17.6856L16.8846 48.9931C16.8846 48.6164 16.8083 48.2892 16.6585 48.0115C16.5059 47.7337 16.2988 47.5165 16.0318 47.357C15.7648 47.2003 15.4542 47.1205 15.0973 47.1205C14.7404 47.1205 14.4271 47.2003 14.1546 47.357C13.8821 47.5137 13.6723 47.7337 13.5198 48.017C13.3699 48.3002 13.2936 48.6357 13.2936 49.0206V49.3424C13.2936 49.7383 13.3808 50.0848 13.5525 50.3873C13.7268 50.687 13.9721 50.918 14.2854 51.0748C14.6014 51.2315 14.972 51.3112 15.3997 51.3112C15.7812 51.3112 16.119 51.2535 16.4078 51.1353C16.6966 51.0198 16.9609 50.8438 17.2034 50.61L18.3096 51.8227C17.9799 52.1994 17.5658 52.4882 17.0699 52.6916C16.5713 52.8924 15.9964 52.9941 15.348 52.9941L15.3507 52.9996Z" fill="white"/>
<path d="M22.6224 53C22.0094 53 21.4181 52.9257 20.8542 52.7773C20.2902 52.6288 19.8433 52.4418 19.5137 52.219L20.2084 50.7121C20.5381 50.9184 20.9277 51.0861 21.3773 51.2181C21.8268 51.3473 22.2682 51.4133 22.7041 51.4133C23.1837 51.4133 23.5242 51.3556 23.7259 51.2374C23.9248 51.1191 24.0256 50.9596 24.0256 50.7534C24.0256 50.5829 23.9465 50.4564 23.7912 50.3684C23.6359 50.2832 23.4289 50.2172 23.17 50.1732C22.9112 50.1292 22.6279 50.0824 22.3227 50.0384C22.0176 49.9944 21.707 49.9339 21.3963 49.8569C21.083 49.78 20.7997 49.6672 20.5408 49.5132C20.2847 49.3592 20.0749 49.153 19.9196 48.8945C19.7643 48.6333 19.6853 48.2978 19.6853 47.8853C19.6853 47.4289 19.8161 47.0246 20.0804 46.6727C20.3419 46.3234 20.7234 46.0457 21.222 45.845C21.7206 45.6442 22.3173 45.5425 23.0093 45.5425C23.4997 45.5425 23.9956 45.5975 24.5051 45.7047C25.0119 45.812 25.4342 45.9687 25.772 46.1749L25.0772 47.6681C24.7312 47.4619 24.3825 47.3189 24.0283 47.2446C23.6768 47.1676 23.3362 47.1291 23.0066 47.1291C22.5434 47.1291 22.2055 47.1924 21.993 47.3189C21.7805 47.4454 21.6715 47.6076 21.6715 47.8028C21.6715 47.9816 21.7505 48.1163 21.9058 48.2071C22.0611 48.2978 22.2682 48.3693 22.527 48.4215C22.7859 48.4765 23.0692 48.5233 23.3744 48.5618C23.6823 48.603 23.9901 48.6635 24.3035 48.7433C24.6141 48.823 24.8974 48.9385 25.1508 49.087C25.4042 49.2355 25.6113 49.4362 25.772 49.692C25.9328 49.9477 26.0118 50.2832 26.0118 50.6956C26.0118 51.1439 25.8783 51.5426 25.6113 51.8891C25.3443 52.2355 24.9601 52.5078 24.456 52.703C23.952 52.901 23.3417 53 22.6197 53H22.6224Z" fill="white"/>
<path d="M27.292 52.8898V42.897H29.3736V52.8898H27.292ZM29.0139 51.4077L29.0684 48.8476L32.4169 45.6413H34.899L31.6813 48.9411L30.5996 49.8293L29.0112 51.4049L29.0139 51.4077ZM32.643 52.8898L30.2127 49.8458L31.5205 48.2151L35.1633 52.8898H32.6403H32.643Z" fill="white"/>
<path d="M50.656 38.0549C47.7734 38.0549 45.2178 37.4472 42.9891 36.2291C40.7604 35.0109 39.0003 33.3445 37.7116 31.2299C36.4201 29.1153 35.7744 26.7064 35.7744 24.0006C35.7744 21.2948 36.4201 18.8337 37.7116 16.7191C39.0003 14.6045 40.7604 12.9463 42.9891 11.7474C45.2178 10.5458 47.7734 9.94629 50.656 9.94629C53.5386 9.94629 56.0507 10.5485 58.2984 11.7474C60.5435 12.9491 62.3036 14.599 63.5787 16.6943C64.8538 18.7925 65.4886 21.2288 65.4886 24.0006C65.4886 26.7724 64.851 29.118 63.5787 31.2299C62.3036 33.3445 60.5435 35.0109 58.2984 36.2291C56.0534 37.4472 53.5059 38.0549 50.656 38.0549ZM50.656 31.5599C51.9638 31.5599 53.1354 31.2546 54.1762 30.6469C55.2142 30.0365 56.037 29.1675 56.6392 28.0346C57.244 26.9017 57.5437 25.557 57.5437 24.0006C57.5437 22.4442 57.2413 21.0583 56.6392 19.9419C56.0343 18.8255 55.2142 17.962 54.1762 17.3543C53.1354 16.7438 51.9638 16.4414 50.656 16.4414C49.3482 16.4414 48.1739 16.7466 47.1359 17.3543C46.0978 17.962 45.2668 18.8255 44.6483 19.9419C44.0271 21.0583 43.7165 22.4112 43.7165 24.0006C43.7165 25.59 44.0271 26.9017 44.6483 28.0346C45.2668 29.1675 46.0978 30.0392 47.1359 30.6469C48.1739 31.2574 49.3482 31.5599 50.656 31.5599Z" fill="white"/>
<path d="M82.3295 38.0547C79.782 38.0547 77.4852 37.4718 75.4417 36.3031C73.3956 35.1372 71.7799 33.5038 70.5893 31.4057C69.3986 29.3103 68.8047 26.8382 68.8047 23.9977C68.8047 21.1571 69.3986 18.6355 70.5893 16.5374C71.7799 14.4393 73.3956 12.8169 75.4417 11.6647C77.4852 10.5153 79.782 9.94059 82.3295 9.94059C84.6099 9.94059 86.6043 10.4493 88.3126 11.464C90.0209 12.4787 91.3451 14.0186 92.285 16.0809C93.2223 18.1433 93.6909 20.7831 93.6909 23.9977C93.6909 27.2122 93.2386 29.808 92.3341 31.8869C91.4295 33.9658 90.1299 35.5139 88.4379 36.5286C86.7433 37.5433 84.708 38.0492 82.3295 38.0492V38.0547ZM83.6863 31.5597C84.9614 31.5597 86.1166 31.2544 87.1547 30.6467C88.1927 30.0363 89.021 29.1673 89.6422 28.0344C90.2634 26.9015 90.574 25.5568 90.574 24.0004C90.574 22.444 90.2634 21.0581 89.6422 19.9417C89.021 18.8253 88.1927 17.9618 87.1547 17.3541C86.1166 16.7436 84.9587 16.4412 83.6863 16.4412C82.4139 16.4412 81.2042 16.7464 80.1662 17.3541C79.1281 17.9618 78.2971 18.8253 77.6759 19.9417C77.0547 21.0581 76.7468 22.411 76.7468 24.0004C76.7468 25.5898 77.0574 26.9015 77.6759 28.0344C78.2971 29.1673 79.1254 30.039 80.1662 30.6467C81.2042 31.2572 82.3785 31.5597 83.6863 31.5597ZM90.7756 37.6478V32.0656L90.9255 23.9454L90.4214 15.8775V0H98.2655V37.6505H90.7756V37.6478Z" fill="white"/>
<path d="M118.931 38.0549C115.847 38.0549 113.141 37.4472 110.812 36.2291C108.482 35.0109 106.681 33.3445 105.406 31.2299C104.131 29.1153 103.496 26.7064 103.496 24.0006C103.496 21.2948 104.125 18.8337 105.382 16.7191C106.638 14.6045 108.354 12.9463 110.534 11.7474C112.711 10.5458 115.176 9.94629 117.925 9.94629C120.675 9.94629 122.96 10.5128 125.091 11.6457C127.219 12.7786 128.903 14.4037 130.142 16.5156C131.382 18.6302 132.003 21.1573 132.003 24.1024C132.003 24.4076 131.987 24.7541 131.954 25.1418C131.922 25.5323 131.886 25.8952 131.853 26.2335H109.882V21.6165H127.731L124.715 22.9887C124.715 21.567 124.432 20.3324 123.86 19.2847C123.29 18.237 122.503 17.4148 121.497 16.8236C120.492 16.2324 119.318 15.9354 117.977 15.9354C116.637 15.9354 115.454 16.2324 114.433 16.8236C113.411 17.4148 112.613 18.2425 112.046 19.3094C111.476 20.3764 111.19 21.6358 111.19 23.0904V24.3086C111.19 25.799 111.517 27.1079 112.171 28.2408C112.825 29.3738 113.746 30.2372 114.937 30.8284C116.127 31.4196 117.525 31.7166 119.135 31.7166C120.576 31.7166 121.841 31.4966 122.93 31.0566C124.018 30.6167 125.017 29.9595 125.922 29.0795L130.093 33.647C128.854 35.0686 127.295 36.1603 125.418 36.9193C123.541 37.681 121.377 38.0604 118.934 38.0604L118.931 38.0549Z" fill="white"/>
<path d="M11.1793 5.75001C16.3669 2.52998 23.3527 2.9782 28.1561 6.76745C31.0033 8.95355 33.0767 12.1571 33.9077 15.6989L34.0439 15.6741C32.5318 5.57403 22.2683 -0.67906 12.637 2.244C4.53136 4.63634 -0.372864 12.4541 0.0221989 20.4753C0.131182 22.7054 0.651575 24.9492 1.62697 27.0996C5.41412 35.613 14.9392 40.0237 23.884 37.5957C27.5785 36.6057 30.9406 34.4856 33.4854 31.6121L28.0471 26.1234C27.6575 26.7036 27.227 27.2646 26.7502 27.7898C24.6741 30.0392 21.7643 31.4883 18.7209 31.7523C11.8904 32.4782 5.49859 27.3361 4.41693 20.4753C3.38977 14.7749 6.20425 8.73907 11.1793 5.75001Z" fill="white"/>
</g>
<defs>
<clipPath id="clip0_261_1357">
<rect width="132" height="53" fill="white"/>
</clipPath>
</defs>
</svg>
