<svg width="19" height="15" viewBox="0 0 19 15" fill="none" xmlns="http://www.w3.org/2000/svg">
<path d="M18.1045 1.76471C17.4523 2.07353 16.7492 2.27647 16.0207 2.37353C16.7661 1.90588 17.3421 1.16471 17.6132 0.273529C16.9101 0.714706 16.1308 1.02353 15.3092 1.2C14.64 0.441177 13.6997 0 12.6324 0C10.6418 0 9.01544 1.69412 9.01544 3.78529C9.01544 4.08529 9.04932 4.37647 9.10862 4.65C6.09304 4.49118 3.40783 2.98235 1.62051 0.697059C1.3071 1.25294 1.12921 1.90588 1.12921 2.59412C1.12921 3.90882 1.76451 5.07353 2.74712 5.73529C2.1457 5.73529 1.58663 5.55882 1.09533 5.29412V5.32059C1.09533 7.15588 2.34899 8.69118 4.00925 9.03529C3.47621 9.18724 2.91661 9.20839 2.37441 9.09706C2.60447 9.84925 3.05506 10.5074 3.66281 10.9791C4.27057 11.4507 5.00494 11.7121 5.76269 11.7265C4.47821 12.7857 2.88603 13.3582 1.2478 13.35C0.959797 13.35 0.671793 13.3324 0.383789 13.2971C1.99322 14.3735 3.9076 15 5.95751 15C12.6324 15 16.3002 9.22941 16.3002 4.22647C16.3002 4.05882 16.3002 3.9 16.2918 3.73235C17.0033 3.20294 17.6132 2.53235 18.1045 1.76471Z" fill="white"/>
</svg>
